<svg xmlns="http://www.w3.org/2000/svg" xmlns:xlink="http://www.w3.org/1999/xlink" width="908" zoomAndPan="magnify" viewBox="0 0 681 119.999999" height="160" preserveAspectRatio="xMidYMid meet" version="1.0"><defs><g/><clipPath id="093d3bbe96"><path d="M 40.804688 3.238281 L 118.226562 3.238281 L 118.226562 68.652344 L 40.804688 68.652344 Z M 40.804688 3.238281 " clip-rule="nonzero"/></clipPath><clipPath id="07319fa012"><path d="M 79.5 3.238281 L 118.195312 68.652344 L 40.804688 68.652344 Z M 79.5 3.238281 " clip-rule="nonzero"/></clipPath><clipPath id="501d31afb4"><path d="M 39.9375 29.1875 L 119.136719 29.1875 L 119.136719 70.148438 L 39.9375 70.148438 Z M 39.9375 29.1875 " clip-rule="nonzero"/></clipPath><clipPath id="6b8dfa6d71"><path d="M 79.5 29.1875 L 119.0625 70.148438 L 39.9375 70.148438 Z M 79.5 29.1875 " clip-rule="nonzero"/></clipPath><clipPath id="abdd8daf5c"><path d="M 39.75 41.636719 L 119.398438 41.636719 L 119.398438 84.839844 L 39.75 84.839844 Z M 39.75 41.636719 " clip-rule="nonzero"/></clipPath><clipPath id="f0b98b2e51"><path d="M 79.5 41.636719 L 119.25 84.839844 L 39.75 84.839844 Z M 79.5 41.636719 " clip-rule="nonzero"/></clipPath><clipPath id="80602b293d"><path d="M 39.75 59.96875 L 119.097656 59.96875 L 119.097656 85.171875 L 39.75 85.171875 Z M 39.75 59.96875 " clip-rule="nonzero"/></clipPath><clipPath id="38a2678ea4"><path d="M 79.40625 59.96875 L 119.0625 85.171875 L 39.75 85.171875 Z M 79.40625 59.96875 " clip-rule="nonzero"/></clipPath><clipPath id="4f238c0f0c"><path d="M 41.824219 72.542969 L 118.246094 72.542969 L 118.246094 98.351562 L 41.824219 98.351562 Z M 41.824219 72.542969 " clip-rule="nonzero"/></clipPath><clipPath id="8dcc176c66"><path d="M 80.007812 72.542969 L 118.195312 98.351562 L 41.824219 98.351562 Z M 80.007812 72.542969 " clip-rule="nonzero"/></clipPath><clipPath id="4cb921486b"><path d="M 41.824219 87.300781 L 118.226562 87.300781 L 118.226562 98.351562 L 41.824219 98.351562 Z M 41.824219 87.300781 " clip-rule="nonzero"/></clipPath><clipPath id="aeea3c2212"><path d="M 80.007812 87.300781 L 118.195312 98.351562 L 41.824219 98.351562 Z M 80.007812 87.300781 " clip-rule="nonzero"/></clipPath><clipPath id="8207bad381"><path d="M 0 96.113281 L 160.441406 96.113281 L 160.441406 116.761719 L 0 116.761719 Z M 0 96.113281 " clip-rule="nonzero"/></clipPath><clipPath id="59a0a7d598"><path d="M 80.195312 96.113281 L 160.386719 116.761719 L 0 116.761719 Z M 80.195312 96.113281 " clip-rule="nonzero"/></clipPath></defs><g clip-path="url(#093d3bbe96)"><g clip-path="url(#07319fa012)"><path fill="#000000" d="M 40.804688 3.238281 L 118.226562 3.238281 L 118.226562 68.652344 L 40.804688 68.652344 Z M 40.804688 3.238281 " fill-opacity="1" fill-rule="nonzero"/></g></g><g clip-path="url(#501d31afb4)"><g clip-path="url(#6b8dfa6d71)"><path fill="#ffffff" d="M 39.9375 29.1875 L 119.136719 29.1875 L 119.136719 70.148438 L 39.9375 70.148438 Z M 39.9375 29.1875 " fill-opacity="1" fill-rule="nonzero"/></g></g><g clip-path="url(#abdd8daf5c)"><g clip-path="url(#f0b98b2e51)"><path fill="#000000" d="M 39.75 41.636719 L 119.230469 41.636719 L 119.230469 84.839844 L 39.75 84.839844 Z M 39.75 41.636719 " fill-opacity="1" fill-rule="nonzero"/></g></g><g clip-path="url(#80602b293d)"><g clip-path="url(#38a2678ea4)"><path fill="#ffffff" d="M 39.75 59.96875 L 119.097656 59.96875 L 119.097656 85.171875 L 39.75 85.171875 Z M 39.75 59.96875 " fill-opacity="1" fill-rule="nonzero"/></g></g><g clip-path="url(#4f238c0f0c)"><g clip-path="url(#8dcc176c66)"><path fill="#000000" d="M 41.824219 72.542969 L 118.144531 72.542969 L 118.144531 98.351562 L 41.824219 98.351562 Z M 41.824219 72.542969 " fill-opacity="1" fill-rule="nonzero"/></g></g><g clip-path="url(#4cb921486b)"><g clip-path="url(#aeea3c2212)"><path fill="#ffffff" d="M 41.824219 87.300781 L 118.183594 87.300781 L 118.183594 98.351562 L 41.824219 98.351562 Z M 41.824219 87.300781 " fill-opacity="1" fill-rule="nonzero"/></g></g><g clip-path="url(#8207bad381)"><g clip-path="url(#59a0a7d598)"><path fill="#f9b130" d="M 0 96.113281 L 160.359375 96.113281 L 160.359375 116.761719 L 0 116.761719 Z M 0 96.113281 " fill-opacity="1" fill-rule="nonzero"/></g></g><g fill="#000000" fill-opacity="1"><g transform="translate(145.931394, 57.786424)"><g><path d="M 42.984375 0 L 13.9375 0 C 11.257812 0 8.972656 -0.941406 7.078125 -2.828125 C 5.191406 -4.722656 4.25 -7.007812 4.25 -9.6875 L 10.703125 -9.6875 C 10.703125 -8.800781 11.019531 -8.039062 11.65625 -7.40625 C 12.289062 -6.769531 13.050781 -6.453125 13.9375 -6.453125 L 42.984375 -6.453125 C 43.867188 -6.453125 44.628906 -6.769531 45.265625 -7.40625 C 45.898438 -8.039062 46.21875 -8.800781 46.21875 -9.6875 L 46.21875 -13.859375 C 46.21875 -14.765625 45.898438 -15.53125 45.265625 -16.15625 C 44.628906 -16.78125 43.867188 -17.09375 42.984375 -17.09375 L 13.9375 -17.09375 C 11.257812 -17.09375 8.972656 -18.039062 7.078125 -19.9375 C 5.191406 -21.832031 4.25 -24.113281 4.25 -26.78125 L 4.25 -30.96875 C 4.25 -33.632812 5.191406 -35.910156 7.078125 -37.796875 C 8.972656 -39.691406 11.257812 -40.640625 13.9375 -40.640625 L 42.984375 -40.640625 C 45.648438 -40.640625 47.929688 -39.691406 49.828125 -37.796875 C 51.722656 -35.910156 52.671875 -33.632812 52.671875 -30.96875 L 46.21875 -30.96875 C 46.21875 -31.851562 45.898438 -32.609375 45.265625 -33.234375 C 44.628906 -33.859375 43.867188 -34.171875 42.984375 -34.171875 L 13.9375 -34.171875 C 13.050781 -34.171875 12.289062 -33.859375 11.65625 -33.234375 C 11.019531 -32.609375 10.703125 -31.851562 10.703125 -30.96875 L 10.703125 -26.78125 C 10.703125 -25.894531 11.019531 -25.132812 11.65625 -24.5 C 12.289062 -23.863281 13.050781 -23.546875 13.9375 -23.546875 L 42.984375 -23.546875 C 45.648438 -23.546875 47.929688 -22.597656 49.828125 -20.703125 C 51.722656 -18.816406 52.671875 -16.535156 52.671875 -13.859375 L 52.671875 -9.6875 C 52.671875 -7.007812 51.722656 -4.722656 49.828125 -2.828125 C 47.929688 -0.941406 45.648438 0 42.984375 0 Z M 42.984375 0 "/></g></g></g><g fill="#000000" fill-opacity="1"><g transform="translate(202.857553, 57.786424)"><g><path d="M 39.75 0 C 43.320312 0 46.367188 -1.257812 48.890625 -3.78125 C 51.410156 -6.300781 52.671875 -9.347656 52.671875 -12.921875 L 52.671875 -27.734375 C 52.671875 -31.285156 51.410156 -34.320312 48.890625 -36.84375 C 46.367188 -39.375 43.320312 -40.640625 39.75 -40.640625 L 17.171875 -40.640625 C 13.597656 -40.640625 10.550781 -39.375 8.03125 -36.84375 C 5.507812 -34.320312 4.25 -31.285156 4.25 -27.734375 L 4.25 -12.921875 C 4.25 -9.347656 5.507812 -6.300781 8.03125 -3.78125 C 10.550781 -1.257812 13.597656 0 17.171875 0 Z M 39.75 -6.453125 L 17.171875 -6.453125 C 15.378906 -6.453125 13.851562 -7.082031 12.59375 -8.34375 C 11.332031 -9.601562 10.703125 -11.128906 10.703125 -12.921875 L 10.703125 -27.734375 C 10.703125 -29.515625 11.332031 -31.035156 12.59375 -32.296875 C 13.851562 -33.566406 15.378906 -34.203125 17.171875 -34.203125 L 39.75 -34.203125 C 41.53125 -34.203125 43.050781 -33.566406 44.3125 -32.296875 C 45.582031 -31.035156 46.21875 -29.515625 46.21875 -27.734375 L 46.21875 -12.921875 C 46.21875 -11.128906 45.582031 -9.601562 44.3125 -8.34375 C 43.050781 -7.082031 41.53125 -6.453125 39.75 -6.453125 Z M 39.75 -6.453125 "/></g></g></g><g fill="#000000" fill-opacity="1"><g transform="translate(259.783713, 57.786424)"><g><path d="M 39.75 0 C 43.320312 0 46.367188 -1.257812 48.890625 -3.78125 C 51.410156 -6.300781 52.671875 -9.347656 52.671875 -12.921875 L 52.671875 -40.640625 L 46.21875 -40.640625 L 46.21875 -12.921875 C 46.21875 -11.128906 45.582031 -9.601562 44.3125 -8.34375 C 43.050781 -7.082031 41.53125 -6.453125 39.75 -6.453125 L 17.171875 -6.453125 C 15.378906 -6.453125 13.851562 -7.082031 12.59375 -8.34375 C 11.332031 -9.601562 10.703125 -11.128906 10.703125 -12.921875 L 10.703125 -40.640625 L 4.25 -40.640625 L 4.25 -12.921875 C 4.25 -9.347656 5.507812 -6.300781 8.03125 -3.78125 C 10.550781 -1.257812 13.597656 0 17.171875 0 Z M 39.75 0 "/></g></g></g><g fill="#000000" fill-opacity="1"><g transform="translate(316.709872, 57.786424)"><g><path d="M 25.703125 0 L 19.234375 0 L 19.234375 -34.203125 L 0.84375 -34.203125 L 0.84375 -40.640625 L 44.125 -40.640625 L 44.125 -34.203125 L 25.703125 -34.203125 Z M 25.703125 0 "/></g></g></g><g fill="#000000" fill-opacity="1"><g transform="translate(361.678422, 57.786424)"><g><path d="M 52.796875 0 L 46.328125 0 L 46.328125 -17.109375 L 12.125 -17.109375 L 12.125 0 L 5.671875 0 L 5.671875 -40.640625 L 12.125 -40.640625 L 12.125 -23.546875 L 46.328125 -23.546875 L 46.328125 -40.640625 L 52.796875 -40.640625 Z M 52.796875 0 "/></g></g></g><g fill="#000000" fill-opacity="1"><g transform="translate(420.134702, 57.786424)"><g><path d="M 58.203125 0 L 54.15625 0 L 39.015625 -30.203125 L 23.890625 0 L 19.859375 0 L 0.84375 -40.640625 L 7.96875 -40.640625 L 21.984375 -10.625 L 37.03125 -40.640625 L 41.03125 -40.640625 L 56.046875 -10.625 L 70.109375 -40.640625 L 77.25 -40.640625 Z M 58.203125 0 "/></g></g></g><g fill="#000000" fill-opacity="1"><g transform="translate(498.227532, 57.786424)"><g><path d="M 50.859375 0 L 5.671875 0 L 5.671875 -40.640625 L 50.859375 -40.640625 L 50.859375 -34.203125 L 12.125 -34.203125 L 12.125 -23.546875 L 46.265625 -23.546875 L 46.265625 -17.09375 L 12.125 -17.09375 L 12.125 -6.453125 L 50.859375 -6.453125 Z M 50.859375 0 "/></g></g></g><g fill="#000000" fill-opacity="1"><g transform="translate(553.340215, 57.786424)"><g><path d="M 42.984375 0 L 13.9375 0 C 11.257812 0 8.972656 -0.941406 7.078125 -2.828125 C 5.191406 -4.722656 4.25 -7.007812 4.25 -9.6875 L 10.703125 -9.6875 C 10.703125 -8.800781 11.019531 -8.039062 11.65625 -7.40625 C 12.289062 -6.769531 13.050781 -6.453125 13.9375 -6.453125 L 42.984375 -6.453125 C 43.867188 -6.453125 44.628906 -6.769531 45.265625 -7.40625 C 45.898438 -8.039062 46.21875 -8.800781 46.21875 -9.6875 L 46.21875 -13.859375 C 46.21875 -14.765625 45.898438 -15.53125 45.265625 -16.15625 C 44.628906 -16.78125 43.867188 -17.09375 42.984375 -17.09375 L 13.9375 -17.09375 C 11.257812 -17.09375 8.972656 -18.039062 7.078125 -19.9375 C 5.191406 -21.832031 4.25 -24.113281 4.25 -26.78125 L 4.25 -30.96875 C 4.25 -33.632812 5.191406 -35.910156 7.078125 -37.796875 C 8.972656 -39.691406 11.257812 -40.640625 13.9375 -40.640625 L 42.984375 -40.640625 C 45.648438 -40.640625 47.929688 -39.691406 49.828125 -37.796875 C 51.722656 -35.910156 52.671875 -33.632812 52.671875 -30.96875 L 46.21875 -30.96875 C 46.21875 -31.851562 45.898438 -32.609375 45.265625 -33.234375 C 44.628906 -33.859375 43.867188 -34.171875 42.984375 -34.171875 L 13.9375 -34.171875 C 13.050781 -34.171875 12.289062 -33.859375 11.65625 -33.234375 C 11.019531 -32.609375 10.703125 -31.851562 10.703125 -30.96875 L 10.703125 -26.78125 C 10.703125 -25.894531 11.019531 -25.132812 11.65625 -24.5 C 12.289062 -23.863281 13.050781 -23.546875 13.9375 -23.546875 L 42.984375 -23.546875 C 45.648438 -23.546875 47.929688 -22.597656 49.828125 -20.703125 C 51.722656 -18.816406 52.671875 -16.535156 52.671875 -13.859375 L 52.671875 -9.6875 C 52.671875 -7.007812 51.722656 -4.722656 49.828125 -2.828125 C 47.929688 -0.941406 45.648438 0 42.984375 0 Z M 42.984375 0 "/></g></g></g><g fill="#000000" fill-opacity="1"><g transform="translate(610.266375, 57.786424)"><g><path d="M 25.703125 0 L 19.234375 0 L 19.234375 -34.203125 L 0.84375 -34.203125 L 0.84375 -40.640625 L 44.125 -40.640625 L 44.125 -34.203125 L 25.703125 -34.203125 Z M 25.703125 0 "/></g></g></g><g fill="#f9b130" fill-opacity="1"><g transform="translate(150.58022, 94.700798)"><g><path d="M 20.921875 0 C 22.660156 0 24.144531 -0.613281 25.375 -1.84375 C 26.613281 -3.082031 27.234375 -4.570312 27.234375 -6.3125 L 27.234375 -14.046875 C 27.234375 -15.785156 26.613281 -17.269531 25.375 -18.5 C 24.144531 -19.738281 22.660156 -20.359375 20.921875 -20.359375 L 2.84375 -20.359375 L 2.84375 0 Z M 20.921875 -2.53125 L 5.359375 -2.53125 L 5.359375 -17.828125 L 20.921875 -17.828125 C 21.972656 -17.828125 22.863281 -17.453125 23.59375 -16.703125 C 24.332031 -15.960938 24.703125 -15.078125 24.703125 -14.046875 L 24.703125 -6.3125 C 24.703125 -5.269531 24.332031 -4.378906 23.59375 -3.640625 C 22.863281 -2.898438 21.972656 -2.53125 20.921875 -2.53125 Z M 20.921875 -2.53125 "/></g></g></g><g fill="#f9b130" fill-opacity="1"><g transform="translate(198.69198, 94.700798)"><g><path d="M 25.96875 0 L 2.84375 0 L 2.84375 -20.359375 L 25.96875 -20.359375 L 25.96875 -17.828125 L 5.359375 -17.828125 L 5.359375 -11.4375 L 23.59375 -11.4375 L 23.59375 -8.90625 L 5.359375 -8.90625 L 5.359375 -2.53125 L 25.96875 -2.53125 Z M 25.96875 0 "/></g></g></g><g fill="#f9b130" fill-opacity="1"><g transform="translate(245.541789, 94.700798)"><g><path d="M 15.515625 0 L 14.171875 0 L 0.421875 -20.34375 L 3.46875 -20.34375 L 14.828125 -3.515625 L 26.203125 -20.34375 L 29.265625 -20.34375 Z M 15.515625 0 "/></g></g></g><g fill="#f9b130" fill-opacity="1"><g transform="translate(293.979672, 94.700798)"><g><path d="M 25.96875 0 L 2.84375 0 L 2.84375 -20.359375 L 25.96875 -20.359375 L 25.96875 -17.828125 L 5.359375 -17.828125 L 5.359375 -11.4375 L 23.59375 -11.4375 L 23.59375 -8.90625 L 5.359375 -8.90625 L 5.359375 -2.53125 L 25.96875 -2.53125 Z M 25.96875 0 "/></g></g></g><g fill="#f9b130" fill-opacity="1"><g transform="translate(340.82948, 94.700798)"><g><path d="M 21.8125 0 L 21.8125 -2.53125 L 5.359375 -2.53125 L 5.359375 -20.359375 L 2.84375 -20.359375 L 2.84375 0 Z M 21.8125 0 "/></g></g></g><g fill="#f9b130" fill-opacity="1"><g transform="translate(382.390448, 94.700798)"><g><path d="M 20.203125 0 C 21.953125 0 23.441406 -0.613281 24.671875 -1.84375 C 25.898438 -3.082031 26.515625 -4.570312 26.515625 -6.3125 L 26.515625 -14.046875 C 26.515625 -15.785156 25.898438 -17.269531 24.671875 -18.5 C 23.441406 -19.738281 21.953125 -20.359375 20.203125 -20.359375 L 8.4375 -20.359375 C 6.695312 -20.359375 5.207031 -19.738281 3.96875 -18.5 C 2.738281 -17.269531 2.125 -15.785156 2.125 -14.046875 L 2.125 -6.3125 C 2.125 -4.570312 2.738281 -3.082031 3.96875 -1.84375 C 5.207031 -0.613281 6.695312 0 8.4375 0 Z M 20.203125 -2.53125 L 8.4375 -2.53125 C 7.394531 -2.53125 6.503906 -2.898438 5.765625 -3.640625 C 5.023438 -4.378906 4.65625 -5.269531 4.65625 -6.3125 L 4.65625 -14.046875 C 4.65625 -15.078125 5.023438 -15.960938 5.765625 -16.703125 C 6.503906 -17.453125 7.394531 -17.828125 8.4375 -17.828125 L 20.203125 -17.828125 C 21.253906 -17.828125 22.148438 -17.453125 22.890625 -16.703125 C 23.628906 -15.960938 24 -15.078125 24 -14.046875 L 24 -6.3125 C 24 -5.269531 23.628906 -4.378906 22.890625 -3.640625 C 22.148438 -2.898438 21.253906 -2.53125 20.203125 -2.53125 Z M 20.203125 -2.53125 "/></g></g></g><g fill="#f9b130" fill-opacity="1"><g transform="translate(429.793247, 94.700798)"><g><path d="M 5.359375 0 L 2.84375 0 L 2.84375 -20.34375 L 22.609375 -20.34375 C 23.878906 -20.34375 24.96875 -19.890625 25.875 -18.984375 C 26.78125 -18.078125 27.234375 -16.988281 27.234375 -15.71875 L 27.234375 -12.265625 C 27.234375 -10.992188 26.78125 -9.90625 25.875 -9 C 24.96875 -8.09375 23.878906 -7.640625 22.609375 -7.640625 L 5.359375 -7.640625 Z M 22.609375 -10.171875 C 23.179688 -10.171875 23.671875 -10.375 24.078125 -10.78125 C 24.492188 -11.195312 24.703125 -11.691406 24.703125 -12.265625 L 24.703125 -15.71875 C 24.703125 -16.289062 24.492188 -16.78125 24.078125 -17.1875 C 23.671875 -17.601562 23.179688 -17.8125 22.609375 -17.8125 L 5.359375 -17.8125 L 5.359375 -10.171875 Z M 22.609375 -10.171875 "/></g></g></g><g fill="#f9b130" fill-opacity="1"><g transform="translate(477.905007, 94.700798)"><g><path d="M 31.140625 0 L 28.625 0 L 28.625 -15.171875 L 17.640625 0 L 16.34375 0 L 5.359375 -15.171875 L 5.359375 0 L 2.84375 0 L 2.84375 -20.34375 L 4.734375 -20.34375 L 16.984375 -3.40625 L 29.234375 -20.34375 L 31.140625 -20.34375 Z M 31.140625 0 "/></g></g></g><g fill="#f9b130" fill-opacity="1"><g transform="translate(530.639196, 94.700798)"><g><path d="M 25.96875 0 L 2.84375 0 L 2.84375 -20.359375 L 25.96875 -20.359375 L 25.96875 -17.828125 L 5.359375 -17.828125 L 5.359375 -11.4375 L 23.59375 -11.4375 L 23.59375 -8.90625 L 5.359375 -8.90625 L 5.359375 -2.53125 L 25.96875 -2.53125 Z M 25.96875 0 "/></g></g></g><g fill="#f9b130" fill-opacity="1"><g transform="translate(577.488994, 94.700798)"><g><path d="M 27.234375 0 L 25.515625 0 L 5.359375 -16.421875 L 5.359375 0 L 2.84375 0 L 2.84375 -20.34375 L 4.546875 -20.34375 L 24.703125 -3.921875 L 24.703125 -20.34375 L 27.234375 -20.34375 Z M 27.234375 0 "/></g></g></g><g fill="#f9b130" fill-opacity="1"><g transform="translate(626.309715, 94.700798)"><g><path d="M 12.96875 0 L 10.4375 0 L 10.4375 -17.8125 L 0.421875 -17.8125 L 0.421875 -20.34375 L 22.96875 -20.34375 L 22.96875 -17.8125 L 12.96875 -17.8125 Z M 12.96875 0 "/></g></g></g><g fill="#000000" fill-opacity="1"><g transform="translate(173.545819, 110.866431)"><g><path d="M 1.007812 0 L 6.65625 0 L 6.65625 -1.617188 L 2.902344 -1.617188 L 2.902344 -3.453125 L 6.199219 -3.453125 L 6.199219 -5.050781 L 2.902344 -5.050781 L 2.902344 -6.789062 L 6.523438 -6.789062 L 6.523438 -8.394531 L 1.007812 -8.394531 Z M 1.007812 0 "/></g></g></g><g fill="#000000" fill-opacity="1"><g transform="translate(184.206655, 110.866431)"><g><path d="M 1.007812 0 L 2.902344 0 L 2.902344 -5.144531 L 6.609375 0 L 8.226562 0 L 8.226562 -8.394531 L 6.332031 -8.394531 L 6.332031 -3.285156 L 2.625 -8.394531 L 1.007812 -8.394531 Z M 1.007812 0 "/></g></g></g><g fill="#000000" fill-opacity="1"><g transform="translate(196.833563, 110.866431)"><g><path d="M 1.007812 0 L 6.65625 0 L 6.65625 -1.617188 L 2.902344 -1.617188 L 2.902344 -3.453125 L 6.199219 -3.453125 L 6.199219 -5.050781 L 2.902344 -5.050781 L 2.902344 -6.789062 L 6.523438 -6.789062 L 6.523438 -8.394531 L 1.007812 -8.394531 Z M 1.007812 0 "/></g></g></g><g fill="#000000" fill-opacity="1"><g transform="translate(207.4944, 110.866431)"><g><path d="M 1.007812 0 L 2.914062 0 L 2.914062 -2.613281 L 4.171875 -2.613281 L 5.671875 0 L 7.878906 0 L 6.140625 -2.914062 C 7.148438 -3.359375 7.734375 -4.269531 7.734375 -5.503906 C 7.734375 -7.292969 6.511719 -8.394531 4.59375 -8.394531 L 1.007812 -8.394531 Z M 2.890625 -4.222656 L 2.890625 -6.765625 L 4.339844 -6.765625 C 5.277344 -6.765625 5.804688 -6.308594 5.804688 -5.492188 C 5.804688 -4.675781 5.277344 -4.222656 4.339844 -4.222656 Z M 2.890625 -4.222656 "/></g></g></g><g fill="#000000" fill-opacity="1"><g transform="translate(219.330086, 110.866431)"><g><path d="M 4.917969 0.167969 C 7.6875 0.167969 9.472656 -1.882812 9.28125 -4.761719 L 4.546875 -4.761719 L 4.546875 -3.285156 L 7.265625 -3.285156 C 7.027344 -2.265625 6.164062 -1.582031 4.941406 -1.582031 C 3.40625 -1.582031 2.421875 -2.6875 2.421875 -4.199219 C 2.421875 -5.730469 3.441406 -6.8125 4.917969 -6.8125 C 5.851562 -6.8125 6.632812 -6.378906 7.039062 -5.648438 L 9.089844 -5.648438 C 8.585938 -7.410156 6.917969 -8.5625 4.882812 -8.5625 C 2.328125 -8.5625 0.515625 -6.75 0.515625 -4.199219 C 0.515625 -1.632812 2.339844 0.167969 4.917969 0.167969 Z M 4.917969 0.167969 "/></g></g></g><g fill="#000000" fill-opacity="1"><g transform="translate(232.508449, 110.866431)"><g><path d="M 3.203125 0 L 5.109375 0 L 5.109375 -2.960938 L 8.191406 -8.394531 L 6.019531 -8.394531 L 4.988281 -6.453125 L 4.160156 -4.929688 L 3.320312 -6.453125 L 2.277344 -8.394531 L 0.109375 -8.394531 L 3.203125 -2.9375 Z M 3.203125 0 "/></g></g></g><g fill="#000000" fill-opacity="1"><g transform="translate(244.20027, 110.866431)"><g/></g></g><g fill="#000000" fill-opacity="1"><g transform="translate(250.413485, 110.866431)"><g><path d="M 1.007812 0 L 6.65625 0 L 6.65625 -1.617188 L 2.902344 -1.617188 L 2.902344 -3.453125 L 6.199219 -3.453125 L 6.199219 -5.050781 L 2.902344 -5.050781 L 2.902344 -6.789062 L 6.523438 -6.789062 L 6.523438 -8.394531 L 1.007812 -8.394531 Z M 1.007812 0 "/></g></g></g><g fill="#000000" fill-opacity="1"><g transform="translate(261.074319, 110.866431)"><g><path d="M 1.007812 0 L 2.914062 0 L 2.914062 -2.890625 L 5.960938 -2.890625 L 5.960938 -4.570312 L 2.914062 -4.570312 L 2.914062 -6.667969 L 6.273438 -6.667969 L 6.273438 -8.394531 L 1.007812 -8.394531 Z M 1.007812 0 "/></g></g></g><g fill="#000000" fill-opacity="1"><g transform="translate(271.267623, 110.866431)"><g><path d="M 1.007812 0 L 2.914062 0 L 2.914062 -2.890625 L 5.960938 -2.890625 L 5.960938 -4.570312 L 2.914062 -4.570312 L 2.914062 -6.667969 L 6.273438 -6.667969 L 6.273438 -8.394531 L 1.007812 -8.394531 Z M 1.007812 0 "/></g></g></g><g fill="#000000" fill-opacity="1"><g transform="translate(281.460921, 110.866431)"><g><path d="M 1.007812 0 L 6.65625 0 L 6.65625 -1.617188 L 2.902344 -1.617188 L 2.902344 -3.453125 L 6.199219 -3.453125 L 6.199219 -5.050781 L 2.902344 -5.050781 L 2.902344 -6.789062 L 6.523438 -6.789062 L 6.523438 -8.394531 L 1.007812 -8.394531 Z M 1.007812 0 "/></g></g></g><g fill="#000000" fill-opacity="1"><g transform="translate(292.121755, 110.866431)"><g><path d="M 4.855469 0.167969 C 7.0625 0.167969 8.777344 -1.175781 9.199219 -3.214844 L 7.230469 -3.214844 C 6.882812 -2.253906 5.996094 -1.644531 4.894531 -1.644531 C 3.464844 -1.644531 2.457031 -2.6875 2.457031 -4.199219 C 2.457031 -5.707031 3.476562 -6.75 4.90625 -6.75 C 5.972656 -6.75 6.847656 -6.175781 7.171875 -5.253906 L 9.136719 -5.253906 C 8.660156 -7.265625 6.980469 -8.5625 4.84375 -8.5625 C 2.300781 -8.5625 0.515625 -6.765625 0.515625 -4.199219 C 0.515625 -1.632812 2.300781 0.167969 4.855469 0.167969 Z M 4.855469 0.167969 "/></g></g></g><g fill="#000000" fill-opacity="1"><g transform="translate(305.192224, 110.866431)"><g><path d="M 1.007812 0 L 2.914062 0 L 2.914062 -8.394531 L 1.007812 -8.394531 Z M 1.007812 0 "/></g></g></g><g fill="#000000" fill-opacity="1"><g transform="translate(312.508351, 110.866431)"><g><path d="M 1.007812 0 L 6.65625 0 L 6.65625 -1.617188 L 2.902344 -1.617188 L 2.902344 -3.453125 L 6.199219 -3.453125 L 6.199219 -5.050781 L 2.902344 -5.050781 L 2.902344 -6.789062 L 6.523438 -6.789062 L 6.523438 -8.394531 L 1.007812 -8.394531 Z M 1.007812 0 "/></g></g></g><g fill="#000000" fill-opacity="1"><g transform="translate(323.169186, 110.866431)"><g><path d="M 1.007812 0 L 2.902344 0 L 2.902344 -5.144531 L 6.609375 0 L 8.226562 0 L 8.226562 -8.394531 L 6.332031 -8.394531 L 6.332031 -3.285156 L 2.625 -8.394531 L 1.007812 -8.394531 Z M 1.007812 0 "/></g></g></g><g fill="#000000" fill-opacity="1"><g transform="translate(335.796092, 110.866431)"><g><path d="M 4.855469 0.167969 C 7.0625 0.167969 8.777344 -1.175781 9.199219 -3.214844 L 7.230469 -3.214844 C 6.882812 -2.253906 5.996094 -1.644531 4.894531 -1.644531 C 3.464844 -1.644531 2.457031 -2.6875 2.457031 -4.199219 C 2.457031 -5.707031 3.476562 -6.75 4.90625 -6.75 C 5.972656 -6.75 6.847656 -6.175781 7.171875 -5.253906 L 9.136719 -5.253906 C 8.660156 -7.265625 6.980469 -8.5625 4.84375 -8.5625 C 2.300781 -8.5625 0.515625 -6.765625 0.515625 -4.199219 C 0.515625 -1.632812 2.300781 0.167969 4.855469 0.167969 Z M 4.855469 0.167969 "/></g></g></g><g fill="#000000" fill-opacity="1"><g transform="translate(348.86656, 110.866431)"><g><path d="M 3.203125 0 L 5.109375 0 L 5.109375 -2.960938 L 8.191406 -8.394531 L 6.019531 -8.394531 L 4.988281 -6.453125 L 4.160156 -4.929688 L 3.320312 -6.453125 L 2.277344 -8.394531 L 0.109375 -8.394531 L 3.203125 -2.9375 Z M 3.203125 0 "/></g></g></g><g fill="#000000" fill-opacity="1"><g transform="translate(360.558382, 110.866431)"><g><path d="M 1.605469 0.132812 C 2.253906 0.132812 2.722656 -0.324219 2.722656 -0.949219 C 2.722656 -1.570312 2.253906 -2.039062 1.605469 -2.039062 C 0.949219 -2.039062 0.492188 -1.570312 0.492188 -0.949219 C 0.492188 -0.324219 0.949219 0.132812 1.605469 0.132812 Z M 1.605469 0.132812 "/></g></g></g><g fill="#000000" fill-opacity="1"><g transform="translate(367.155214, 110.866431)"><g><path d="M 4.855469 0.167969 C 7.0625 0.167969 8.777344 -1.175781 9.199219 -3.214844 L 7.230469 -3.214844 C 6.882812 -2.253906 5.996094 -1.644531 4.894531 -1.644531 C 3.464844 -1.644531 2.457031 -2.6875 2.457031 -4.199219 C 2.457031 -5.707031 3.476562 -6.75 4.90625 -6.75 C 5.972656 -6.75 6.847656 -6.175781 7.171875 -5.253906 L 9.136719 -5.253906 C 8.660156 -7.265625 6.980469 -8.5625 4.84375 -8.5625 C 2.300781 -8.5625 0.515625 -6.765625 0.515625 -4.199219 C 0.515625 -1.632812 2.300781 0.167969 4.855469 0.167969 Z M 4.855469 0.167969 "/></g></g></g><g fill="#000000" fill-opacity="1"><g transform="translate(380.225693, 110.866431)"><g><path d="M 4.988281 0.167969 C 7.617188 0.167969 9.472656 -1.632812 9.472656 -4.199219 C 9.472656 -6.765625 7.617188 -8.5625 4.988281 -8.5625 C 2.363281 -8.5625 0.515625 -6.765625 0.515625 -4.199219 C 0.515625 -1.632812 2.363281 0.167969 4.988281 0.167969 Z M 2.457031 -4.199219 C 2.457031 -5.707031 3.5 -6.75 4.988281 -6.75 C 6.488281 -6.75 7.519531 -5.707031 7.519531 -4.199219 C 7.519531 -2.6875 6.488281 -1.644531 4.988281 -1.644531 C 3.5 -1.644531 2.457031 -2.6875 2.457031 -4.199219 Z M 2.457031 -4.199219 "/></g></g></g><g fill="#000000" fill-opacity="1"><g transform="translate(393.607865, 110.866431)"><g><path d="M 1.007812 0 L 2.902344 0 L 2.902344 -5.144531 L 6.609375 0 L 8.226562 0 L 8.226562 -8.394531 L 6.332031 -8.394531 L 6.332031 -3.285156 L 2.625 -8.394531 L 1.007812 -8.394531 Z M 1.007812 0 "/></g></g></g><g fill="#000000" fill-opacity="1"><g transform="translate(406.234771, 110.866431)"><g><path d="M 3.933594 0.167969 C 5.925781 0.167969 7.148438 -0.78125 7.148438 -2.363281 C 7.148438 -3.695312 6.273438 -4.484375 4.183594 -4.976562 C 2.902344 -5.277344 2.457031 -5.601562 2.457031 -6.117188 C 2.457031 -6.667969 2.949219 -7.003906 3.753906 -7.003906 C 4.628906 -7.003906 5.15625 -6.546875 5.15625 -5.792969 L 6.992188 -5.792969 C 6.992188 -7.484375 5.71875 -8.5625 3.730469 -8.5625 C 1.800781 -8.5625 0.601562 -7.617188 0.601562 -6.082031 C 0.601562 -4.714844 1.523438 -3.898438 3.488281 -3.476562 C 4.675781 -3.226562 5.214844 -2.878906 5.214844 -2.289062 C 5.214844 -1.726562 4.714844 -1.402344 3.921875 -1.402344 C 3 -1.402344 2.398438 -1.871094 2.398438 -2.675781 L 0.527344 -2.675781 C 0.527344 -0.933594 1.824219 0.167969 3.933594 0.167969 Z M 3.933594 0.167969 "/></g></g></g><g fill="#000000" fill-opacity="1"><g transform="translate(417.315215, 110.866431)"><g><path d="M 3.023438 0 L 4.929688 0 L 4.929688 -6.609375 L 7.589844 -6.609375 L 7.589844 -8.394531 L 0.359375 -8.394531 L 0.359375 -6.609375 L 3.023438 -6.609375 Z M 3.023438 0 "/></g></g></g><g fill="#000000" fill-opacity="1"><g transform="translate(428.659399, 110.866431)"><g><path d="M 1.007812 0 L 2.914062 0 L 2.914062 -2.613281 L 4.171875 -2.613281 L 5.671875 0 L 7.878906 0 L 6.140625 -2.914062 C 7.148438 -3.359375 7.734375 -4.269531 7.734375 -5.503906 C 7.734375 -7.292969 6.511719 -8.394531 4.59375 -8.394531 L 1.007812 -8.394531 Z M 2.890625 -4.222656 L 2.890625 -6.765625 L 4.339844 -6.765625 C 5.277344 -6.765625 5.804688 -6.308594 5.804688 -5.492188 C 5.804688 -4.675781 5.277344 -4.222656 4.339844 -4.222656 Z M 2.890625 -4.222656 "/></g></g></g><g fill="#000000" fill-opacity="1"><g transform="translate(440.495084, 110.866431)"><g><path d="M 4.4375 0.167969 C 6.621094 0.167969 7.949219 -1.199219 7.949219 -3.453125 L 7.949219 -8.394531 L 6.042969 -8.394531 L 6.042969 -3.585938 C 6.042969 -2.300781 5.503906 -1.644531 4.4375 -1.644531 C 3.371094 -1.644531 2.832031 -2.300781 2.832031 -3.585938 L 2.832031 -8.394531 L 0.921875 -8.394531 L 0.921875 -3.453125 C 0.921875 -1.199219 2.253906 0.167969 4.4375 0.167969 Z M 4.4375 0.167969 "/></g></g></g><g fill="#000000" fill-opacity="1"><g transform="translate(452.762349, 110.866431)"><g><path d="M 4.855469 0.167969 C 7.0625 0.167969 8.777344 -1.175781 9.199219 -3.214844 L 7.230469 -3.214844 C 6.882812 -2.253906 5.996094 -1.644531 4.894531 -1.644531 C 3.464844 -1.644531 2.457031 -2.6875 2.457031 -4.199219 C 2.457031 -5.707031 3.476562 -6.75 4.90625 -6.75 C 5.972656 -6.75 6.847656 -6.175781 7.171875 -5.253906 L 9.136719 -5.253906 C 8.660156 -7.265625 6.980469 -8.5625 4.84375 -8.5625 C 2.300781 -8.5625 0.515625 -6.765625 0.515625 -4.199219 C 0.515625 -1.632812 2.300781 0.167969 4.855469 0.167969 Z M 4.855469 0.167969 "/></g></g></g><g fill="#000000" fill-opacity="1"><g transform="translate(465.832828, 110.866431)"><g><path d="M 3.023438 0 L 4.929688 0 L 4.929688 -6.609375 L 7.589844 -6.609375 L 7.589844 -8.394531 L 0.359375 -8.394531 L 0.359375 -6.609375 L 3.023438 -6.609375 Z M 3.023438 0 "/></g></g></g><g fill="#000000" fill-opacity="1"><g transform="translate(477.177012, 110.866431)"><g><path d="M 4.988281 0.167969 C 7.617188 0.167969 9.472656 -1.632812 9.472656 -4.199219 C 9.472656 -6.765625 7.617188 -8.5625 4.988281 -8.5625 C 2.363281 -8.5625 0.515625 -6.765625 0.515625 -4.199219 C 0.515625 -1.632812 2.363281 0.167969 4.988281 0.167969 Z M 2.457031 -4.199219 C 2.457031 -5.707031 3.5 -6.75 4.988281 -6.75 C 6.488281 -6.75 7.519531 -5.707031 7.519531 -4.199219 C 7.519531 -2.6875 6.488281 -1.644531 4.988281 -1.644531 C 3.5 -1.644531 2.457031 -2.6875 2.457031 -4.199219 Z M 2.457031 -4.199219 "/></g></g></g><g fill="#000000" fill-opacity="1"><g transform="translate(490.559184, 110.866431)"><g><path d="M 1.007812 0 L 2.902344 0 L 2.902344 -5.144531 L 6.609375 0 L 8.226562 0 L 8.226562 -8.394531 L 6.332031 -8.394531 L 6.332031 -3.285156 L 2.625 -8.394531 L 1.007812 -8.394531 Z M 1.007812 0 "/></g></g></g><g fill="#000000" fill-opacity="1"><g transform="translate(503.18609, 110.866431)"><g><path d="M 1.605469 0.132812 C 2.253906 0.132812 2.722656 -0.324219 2.722656 -0.949219 C 2.722656 -1.570312 2.253906 -2.039062 1.605469 -2.039062 C 0.949219 -2.039062 0.492188 -1.570312 0.492188 -0.949219 C 0.492188 -0.324219 0.949219 0.132812 1.605469 0.132812 Z M 1.605469 0.132812 "/></g></g></g><g fill="#000000" fill-opacity="1"><g transform="translate(509.782922, 110.866431)"><g><path d="M 1.007812 0 L 2.914062 0 L 2.914062 -2.613281 L 4.171875 -2.613281 L 5.671875 0 L 7.878906 0 L 6.140625 -2.914062 C 7.148438 -3.359375 7.734375 -4.269531 7.734375 -5.503906 C 7.734375 -7.292969 6.511719 -8.394531 4.59375 -8.394531 L 1.007812 -8.394531 Z M 2.890625 -4.222656 L 2.890625 -6.765625 L 4.339844 -6.765625 C 5.277344 -6.765625 5.804688 -6.308594 5.804688 -5.492188 C 5.804688 -4.675781 5.277344 -4.222656 4.339844 -4.222656 Z M 2.890625 -4.222656 "/></g></g></g><g fill="#000000" fill-opacity="1"><g transform="translate(521.618607, 110.866431)"><g><path d="M 1.007812 0 L 6.65625 0 L 6.65625 -1.617188 L 2.902344 -1.617188 L 2.902344 -3.453125 L 6.199219 -3.453125 L 6.199219 -5.050781 L 2.902344 -5.050781 L 2.902344 -6.789062 L 6.523438 -6.789062 L 6.523438 -8.394531 L 1.007812 -8.394531 Z M 1.007812 0 "/></g></g></g><g fill="#000000" fill-opacity="1"><g transform="translate(532.279442, 110.866431)"><g><path d="M 1.007812 0 L 2.902344 0 L 2.902344 -5.0625 L 4.941406 -2.074219 L 6.261719 -2.074219 L 8.296875 -5.050781 L 8.296875 0 L 10.195312 0 L 10.195312 -8.394531 L 8.585938 -8.394531 L 5.613281 -4.042969 L 2.625 -8.394531 L 1.007812 -8.394531 Z M 1.007812 0 "/></g></g></g><g fill="#000000" fill-opacity="1"><g transform="translate(546.87242, 110.866431)"><g><path d="M 4.988281 0.167969 C 7.617188 0.167969 9.472656 -1.632812 9.472656 -4.199219 C 9.472656 -6.765625 7.617188 -8.5625 4.988281 -8.5625 C 2.363281 -8.5625 0.515625 -6.765625 0.515625 -4.199219 C 0.515625 -1.632812 2.363281 0.167969 4.988281 0.167969 Z M 2.457031 -4.199219 C 2.457031 -5.707031 3.5 -6.75 4.988281 -6.75 C 6.488281 -6.75 7.519531 -5.707031 7.519531 -4.199219 C 7.519531 -2.6875 6.488281 -1.644531 4.988281 -1.644531 C 3.5 -1.644531 2.457031 -2.6875 2.457031 -4.199219 Z M 2.457031 -4.199219 "/></g></g></g><g fill="#000000" fill-opacity="1"><g transform="translate(560.254614, 110.866431)"><g><path d="M 1.007812 0 L 4.328125 0 C 6.980469 0 8.753906 -1.691406 8.753906 -4.199219 C 8.753906 -6.691406 6.980469 -8.394531 4.328125 -8.394531 L 1.007812 -8.394531 Z M 2.914062 -1.75 L 2.914062 -6.644531 L 4.269531 -6.644531 C 5.78125 -6.644531 6.800781 -5.671875 6.800781 -4.199219 C 6.800781 -2.722656 5.78125 -1.75 4.292969 -1.75 Z M 2.914062 -1.75 "/></g></g></g><g fill="#000000" fill-opacity="1"><g transform="translate(572.905508, 110.866431)"><g><path d="M 1.007812 0 L 6.65625 0 L 6.65625 -1.617188 L 2.902344 -1.617188 L 2.902344 -3.453125 L 6.199219 -3.453125 L 6.199219 -5.050781 L 2.902344 -5.050781 L 2.902344 -6.789062 L 6.523438 -6.789062 L 6.523438 -8.394531 L 1.007812 -8.394531 Z M 1.007812 0 "/></g></g></g><g fill="#000000" fill-opacity="1"><g transform="translate(583.566365, 110.866431)"><g><path d="M 1.007812 0 L 6.582031 0 L 6.582031 -1.785156 L 2.914062 -1.785156 L 2.914062 -8.394531 L 1.007812 -8.394531 Z M 1.007812 0 "/></g></g></g><g fill="#000000" fill-opacity="1"><g transform="translate(593.867558, 110.866431)"><g><path d="M 1.007812 0 L 2.914062 0 L 2.914062 -8.394531 L 1.007812 -8.394531 Z M 1.007812 0 "/></g></g></g><g fill="#000000" fill-opacity="1"><g transform="translate(601.183674, 110.866431)"><g><path d="M 1.007812 0 L 2.902344 0 L 2.902344 -5.144531 L 6.609375 0 L 8.226562 0 L 8.226562 -8.394531 L 6.332031 -8.394531 L 6.332031 -3.285156 L 2.625 -8.394531 L 1.007812 -8.394531 Z M 1.007812 0 "/></g></g></g><g fill="#000000" fill-opacity="1"><g transform="translate(613.81058, 110.866431)"><g><path d="M 4.917969 0.167969 C 7.6875 0.167969 9.472656 -1.882812 9.28125 -4.761719 L 4.546875 -4.761719 L 4.546875 -3.285156 L 7.265625 -3.285156 C 7.027344 -2.265625 6.164062 -1.582031 4.941406 -1.582031 C 3.40625 -1.582031 2.421875 -2.6875 2.421875 -4.199219 C 2.421875 -5.730469 3.441406 -6.8125 4.917969 -6.8125 C 5.851562 -6.8125 6.632812 -6.378906 7.039062 -5.648438 L 9.089844 -5.648438 C 8.585938 -7.410156 6.917969 -8.5625 4.882812 -8.5625 C 2.328125 -8.5625 0.515625 -6.75 0.515625 -4.199219 C 0.515625 -1.632812 2.339844 0.167969 4.917969 0.167969 Z M 4.917969 0.167969 "/></g></g></g></svg>