<?xml version="1.0" encoding="utf-8"?>
<!-- Generator: Adobe Illustrator 24.3.0, SVG Export Plug-In . SVG Version: 6.00 Build 0)  -->
<svg version="1.1" id="Layer_1" xmlns="http://www.w3.org/2000/svg" xmlns:xlink="http://www.w3.org/1999/xlink" x="0px" y="0px"
	 viewBox="0 0 293 207.2" style="enable-background:new 0 0 293 207.2;" xml:space="preserve">
<style type="text/css">
	.st0{fill:url(#SVGID_1_);}
	.st1{fill:url(#SVGID_2_);}
</style>
<g>
	<g>
		<linearGradient id="SVGID_1_" gradientUnits="userSpaceOnUse" x1="31.4379" y1="127.1705" x2="229.4871" y2="127.1705">
			<stop  offset="9.497460e-03" style="stop-color:#1F4386"/>
			<stop  offset="7.499559e-02" style="stop-color:#22488B"/>
			<stop  offset="0.6811" style="stop-color:#3B6EB1"/>
			<stop  offset="1" style="stop-color:#447CBF"/>
		</linearGradient>
		<path class="st0" d="M229.4,137.6c-0.7-11.4-8.1-20.7-18.1-25c-3.8-1.6-8-2.6-12.5-2.6H74.6c-6.8,0-12.8-3.7-15.9-9.3
			c-1.6-2.6-2.5-5.7-2.5-9.1c0-0.8,0-1.6,0.1-2.5c0.4-2.9,1.5-5.5,3-7.9c0.2-0.2,0.4-0.5,0.7-0.8l-2.4-1.3
			c-8.8,4.6-15.6,12.6-18.4,22.3c-0.6,2.1-1,4.2-1.2,6.4c-0.1,0.8-0.1,1.6-0.1,2.3v37.5c-3.9,2.7-6.5,7.3-6.5,12.4
			c0,5.1,2.5,9.6,6.5,12.4c0.5,0.4,1,0.7,1.6,1c2.1,1.2,4.6,1.8,7.2,1.8c8.4,0,15.2-6.8,15.2-15.2c0-4.8-2.2-9-5.7-11.8v-25
			c5.4,3.2,11.7,5,18.4,5h125.3c7,0,12.6,6.4,11.1,13.7c-0.1,0.7-0.3,1.4-0.7,2.1c-1.7,4.2-6.1,6.9-10.8,6.9h-90.2
			c-2.8-3.7-7.2-6.2-12.2-6.2c-8.3,0-15.2,6.8-15.2,15.2c0,0.3,0,0.6,0.1,0.9c0.2,3.1,1.3,6,3.2,8.4c2.7,3.6,7.1,5.9,11.9,5.9
			c4.9,0,9.2-2.3,12-5.9h90.7c4.6,0,9-1.1,12.9-3C223.2,161.2,230.3,150.2,229.4,137.6z M46.6,167.1c-3.9,0-7.1-3.2-7.1-7.1
			c0-3.9,3.2-7.1,7.1-7.1c3.9,0,7.1,3.2,7.1,7.1C53.7,163.9,50.5,167.1,46.6,167.1z M97.2,167.1c-3.9,0-7.1-3.2-7.1-7.1
			c0-3.9,3.2-7.1,7.1-7.1c3.9,0,7.1,3.2,7.1,7.1C104.3,163.9,101.1,167.1,97.2,167.1z"/>
	</g>
</g>
<g>
	<g>
		<linearGradient id="SVGID_2_" gradientUnits="userSpaceOnUse" x1="63.8794" y1="80.4157" x2="261.9285" y2="80.4157">
			<stop  offset="4.664910e-02" style="stop-color:#00ADCE"/>
			<stop  offset="9.314921e-02" style="stop-color:#0CB2D3"/>
			<stop  offset="0.2182" style="stop-color:#28BBDF"/>
			<stop  offset="0.344" style="stop-color:#3CC2E7"/>
			<stop  offset="0.47" style="stop-color:#48C6EC"/>
			<stop  offset="0.5964" style="stop-color:#4CC8ED"/>
			<stop  offset="0.9955" style="stop-color:#79D1EF"/>
		</linearGradient>
		<path class="st1" d="M64,70c0.7,11.4,8.1,20.7,18.1,25c3.8,1.6,8,2.6,12.5,2.6h124.3c6.8,0,12.8,3.7,15.9,9.3
			c1.6,2.6,2.5,5.7,2.5,9.1c0,0.8,0,1.6-0.1,2.5c-0.4,2.9-1.5,5.5-3,7.9c-0.2,0.2-0.4,0.5-0.7,0.8l2.4,1.3
			c8.8-4.6,15.6-12.6,18.4-22.3c0.6-2.1,1-4.2,1.2-6.4c0.1-0.8,0.1-1.6,0.1-2.3V60c3.9-2.7,6.5-7.3,6.5-12.4c0-5.1-2.5-9.6-6.5-12.4
			c-0.5-0.4-1-0.7-1.6-1c-2.1-1.2-4.6-1.8-7.2-1.8c-8.4,0-15.2,6.8-15.2,15.2c0,4.8,2.2,9,5.7,11.8v25c-5.4-3.2-11.7-5-18.4-5H93.5
			c-7,0-12.6-6.4-11.1-13.7c0.1-0.7,0.3-1.4,0.7-2.1c1.7-4.2,6.1-6.9,10.8-6.9H184c2.8,3.7,7.2,6.2,12.2,6.2
			c8.3,0,15.2-6.8,15.2-15.2c0-0.3,0-0.6-0.1-0.9c-0.2-3.1-1.3-6-3.2-8.4c-2.7-3.6-7.1-5.9-11.9-5.9c-4.9,0-9.2,2.3-12,5.9H93.5
			c-4.6,0-9,1.1-12.9,3C70.2,46.4,63.1,57.4,64,70z M246.7,40.5c3.9,0,7.1,3.2,7.1,7.1c0,3.9-3.2,7.1-7.1,7.1
			c-3.9,0-7.1-3.2-7.1-7.1C239.7,43.7,242.9,40.5,246.7,40.5z M196.2,40.5c3.9,0,7.1,3.2,7.1,7.1c0,3.9-3.2,7.1-7.1,7.1
			c-3.9,0-7.1-3.2-7.1-7.1C189.1,43.7,192.3,40.5,196.2,40.5z"/>
	</g>
</g>
</svg>
