<?xml version="1.0" encoding="utf-8"?>
<!-- Generator: Adobe Illustrator 24.3.0, SVG Export Plug-In . SVG Version: 6.00 Build 0)  -->
<svg version="1.1" id="Layer_1" xmlns="http://www.w3.org/2000/svg" xmlns:xlink="http://www.w3.org/1999/xlink" x="0px" y="0px"
	 viewBox="0 0 447.9 200.3" style="enable-background:new 0 0 447.9 200.3;" xml:space="preserve">
<style type="text/css">
	.st0{fill:#272364;}
	.st1{fill:url(#SVGID_1_);}
	.st2{fill:url(#SVGID_2_);}
	.st3{fill:url(#SVGID_3_);}
</style>
<g>
	<g>
		<g>
			<path class="st0" d="M264.4,149h-42.6c-5.5,0-10-4.5-10-10v-11.4c0-5.5,4.5-10,10-10h39.3l0,0c0,2.8-2.2,5-5,5h-34.2
				c-2.8,0-5,2.2-5,5V139c0,2.8,2.2,5,5,5h37.6C262.2,144,264.4,146.3,264.4,149L264.4,149z"/>
		</g>
	</g>
	<g>
		<g>
			<path class="st0" d="M132.5,149L132.5,149v-26.4c0-2.8-2.2-5-5-5l0,0V144C127.5,146.8,129.7,149,132.5,149z"/>
		</g>
	</g>
	<g>
		<g>
			<path class="st0" d="M201.9,149L201.9,149v-26.4c0-2.8-2.2-5-5-5l0,0V144C196.9,146.8,199.1,149,201.9,149z"/>
		</g>
	</g>
	<g>
		<g>
			<path class="st0" d="M193.3,149h-41.8c-6,0-10.9-4.9-10.9-10.9v-20.5l0,0c2.8,0,5,2.2,5,5v15.5c0,3.2,2.6,5.9,5.9,5.9h36.8
				C191.1,144,193.3,146.3,193.3,149L193.3,149z"/>
		</g>
	</g>
	<g>
		<g>
			<path class="st0" d="M377.4,122.6v19.6l-43.9-24.3c-1-0.5-2.2-0.4-3,0.4c-0.5,0.5-0.7,1.2-0.7,1.9v9.2c1.7-0.6,3.6-0.3,5,0.8
				v-5.9l43.9,24.3c1,0.5,2.2,0.4,3-0.4c0.5-0.5,0.7-1.2,0.7-1.9v-28.8C379.6,117.6,377.4,119.9,377.4,122.6z M334.2,139.2
				L334.2,139.2c-1.4,0.8-3,0.9-4.4,0.4v9.4c2.8,0,5-2.3,5-5v-5.2C334.6,139,334.4,139.1,334.2,139.2z"/>
		</g>
	</g>
	<g>
		<g>
			<path class="st0" d="M106.4,149H64.1l0,0c0-2.8,2.2-5,5-5h37.4c2.6,0,4.9-1.8,5.2-4.4c0.4-3.1-2-5.7-5-5.7H72.6
				c-4.3,0-8.1-3.3-8.4-7.6c-0.3-4.7,3.5-8.7,8.1-8.7h42l0,0c0,2.8-2.2,5-5,5H72.4c-1.5,0-2.9,1-3.1,2.5c-0.4,2,1.1,3.8,3.1,3.8
				h34.4c5.9,0,10.6,5.1,10,11C116.2,145.2,111.6,149,106.4,149z"/>
		</g>
	</g>
	<circle class="st0" cx="45.5" cy="130.7" r="3.4"/>
	<circle class="st0" cx="401" cy="130.7" r="3.4"/>
	<g>
		<g>
			<g>
				<g>
					<path class="st0" d="M364,80.5h-51.2c-6.7,0-12.1-5.4-12.1-12.1V54.7c0-6.7,5.4-12.1,12.1-12.1h48.2l0,0c0,3.3-2.7,6-6,6h-42.2
						c-3.3,0-6,2.7-6,6v13.6c0,3.3,2.7,6,6,6h45.2C361.3,74.4,364,77.1,364,80.5L364,80.5z"/>
				</g>
			</g>
			<g>
				<g>
					<path class="st0" d="M348.5,62.3h-34.7l0,0c0-3.3,2.7-6,6-6h34.7l0,0C354.5,59.6,351.8,62.3,348.5,62.3z"/>
				</g>
			</g>
		</g>
	</g>
	<g>
		<path class="st0" d="M131.3,59.4l11.2,21.1h-3.2c-2.2,0-4.3-1.2-5.3-3.2l-8-15H97.3v12.2c0,3.3-2.7,6-6,6V48.7c0-3.3,2.7-6,6-6
			v13.6h28.9l7.4-11.1c1.1-1.7,3-2.7,5-2.7h4L131.3,59.4z"/>
	</g>
	<g>
		<g>
			<g>
				<path class="st0" d="M67.3,80.5H16.5l0,0c0-3.3,2.7-6,6-6h44.9c3.1,0,5.8-2.2,6.2-5.3c0.5-3.7-2.4-6.9-6-6.9h-41
					c-5.2,0-9.8-3.9-10.1-9.1c-0.4-5.7,4.2-10.5,9.8-10.5h50.5l0,0c0,3.3-2.7,6-6,6H26.4c-1.8,0-3.4,1.2-3.8,3
					c-0.5,2.4,1.3,4.5,3.7,4.5h41.4c7.1,0,12.7,6.1,12.1,13.3C79.2,75.8,73.6,80.5,67.3,80.5z"/>
			</g>
		</g>
	</g>
	<path class="st0" d="M432,48.7c0-3.3-2.7-6-6-6h-57.3l0,0c0,3.3,2.7,6,6,6h22.6v25.7c0,3.3,2.7,6,6,6V48.7H432z"/>
	<path class="st0" d="M215.2,42.6h-9.4c-1.2,0-2.3,0.3-3.3,1l-18.9,12.1l-19-12.1c-1-0.6-2.1-0.9-3.2-0.9h-9.4l28.6,18.3v13.5
		c0,3.3,2.7,6,6,6V60.9L215.2,42.6z"/>
	<linearGradient id="SVGID_1_" gradientUnits="userSpaceOnUse" x1="223.0997" y1="56.5415" x2="295.3075" y2="56.5415">
		<stop  offset="9.497460e-03" style="stop-color:#1F4386"/>
		<stop  offset="7.499559e-02" style="stop-color:#22488B"/>
		<stop  offset="0.6811" style="stop-color:#3B6EB1"/>
		<stop  offset="1" style="stop-color:#447CBF"/>
	</linearGradient>
	<path class="st1" d="M288.9,34.6c-3.5,0-6.4,2.9-6.4,6.4c0,2.6,1.6,4.9,3.9,5.9v23.4l-5-2.8l-6-3.3l-39.3-21.8
		c0-0.2,0.1-0.5,0.1-0.8c0-3.5-2.9-6.4-6.4-6.4c-3.5,0-6.4,2.9-6.4,6.4c0,3.6,2.9,6.4,6.4,6.4c1.1,0,2.1-0.3,3-0.7l2.5,1.5
		l40.2,22.3l6,3.3l6.6,3.6c1.2,0.6,2.6,0.5,3.6-0.5c0.6-0.6,0.9-1.4,0.9-2.3V46.5c1.8-1.1,3-3.1,3-5.4
		C295.3,37.5,292.4,34.6,288.9,34.6z M228.8,44.2c-1.1-0.3-1.9-1.3-1.9-2.5c0-1.5,1.2-2.6,2.6-2.6c1.1,0,2.1,0.7,2.5,1.7
		c0.1,0.3,0.2,0.6,0.2,1c0,1.5-1.2,2.7-2.7,2.7C229.3,44.3,229.1,44.3,228.8,44.2z M291.5,41.1c0,1.5-1.2,2.6-2.6,2.6
		c-0.6,0-1.1-0.2-1.5-0.5c-0.7-0.5-1.2-1.3-1.2-2.2c0-1.5,1.2-2.6,2.6-2.6c1.3,0,2.5,1,2.6,2.3C291.5,40.8,291.5,40.9,291.5,41.1z"
		/>
	<linearGradient id="SVGID_2_" gradientUnits="userSpaceOnUse" x1="215.3729" y1="69.2191" x2="287.5917" y2="69.2191">
		<stop  offset="9.497460e-03" style="stop-color:#1F4386"/>
		<stop  offset="7.499559e-02" style="stop-color:#22488B"/>
		<stop  offset="0.6811" style="stop-color:#3B6EB1"/>
		<stop  offset="1" style="stop-color:#447CBF"/>
	</linearGradient>
	<path class="st2" d="M281.2,78.3L281.2,78.3c-1.1,0-2.1,0.3-3,0.7l-2.5-1.5l-39.9-22.7l-6-3.4l-6.5-3.7c-1.1-0.7-2.6-0.5-3.6,0.5
		c-0.6,0.6-0.9,1.4-0.9,2.3l-0.3,28.8c-1.8,1.1-3,3.1-3.1,5.4c0,1.7,0.6,3.4,1.8,4.6c1.2,1.2,2.8,1.9,4.5,1.9l0,0h0.1
		c3.5,0,6.4-2.9,6.4-6.4c0-1.7-0.6-3.3-1.8-4.6c-0.6-0.6-1.2-1-2-1.4l0.3-23.4l5,2.9l6,3.4l39,22.2c0,0.2-0.1,0.5-0.1,0.8
		c0,3.5,2.8,6.5,6.4,6.5h0.1c3.5,0,6.4-2.9,6.4-6.4C287.6,81.3,284.8,78.3,281.2,78.3z M221.8,87.3L221.8,87.3c-1.4,0-2.5-1-2.6-2.3
		c0-0.1,0-0.2,0-0.3c0-1.4,1.2-2.6,2.6-2.6h0c0.6,0,1,0.2,1.5,0.5c0.7,0.5,1.2,1.3,1.1,2.2C224.4,86.1,223.3,87.3,221.8,87.3z
		 M281.1,87.4L281.1,87.4c-1.1,0-2.1-0.7-2.5-1.7c-0.1-0.3-0.2-0.6-0.2-1c0-1.4,1.2-2.6,2.6-2.6h0c0.2,0,0.5,0,0.7,0.1
		c1.1,0.3,1.9,1.4,1.9,2.6C283.8,86.2,282.6,87.4,281.1,87.4z"/>
	<linearGradient id="SVGID_3_" gradientUnits="userSpaceOnUse" x1="281.9829" y1="148.4399" x2="319.5134" y2="110.9095">
		<stop  offset="4.664910e-02" style="stop-color:#00ADCE"/>
		<stop  offset="9.314921e-02" style="stop-color:#0CB2D3"/>
		<stop  offset="0.2182" style="stop-color:#28BBDF"/>
		<stop  offset="0.344" style="stop-color:#3CC2E7"/>
		<stop  offset="0.47" style="stop-color:#48C6EC"/>
		<stop  offset="0.5964" style="stop-color:#4CC8ED"/>
		<stop  offset="0.9955" style="stop-color:#79D1EF"/>
	</linearGradient>
	<path class="st3" d="M335.2,132.6c-0.1-0.2-0.2-0.4-0.4-0.6c-1.2-1.5-3.3-1.9-5-1l0,0l0,0c-0.2,0.1-0.4,0.3-0.6,0.4
		c-0.3,0.2-0.5,0.5-0.8,0.8l-1.8,0l-2.5,0h-1.9v-3.8c0-6-4.9-10.9-10.9-10.9h-3.5l5.8-9c0.2,0,0.3,0.1,0.5,0.1
		c2.2,0.1,4.1-1.5,4.2-3.7v-0.1c0.1-2.2-1.5-4-3.7-4.2c-2.2-0.2-4.1,1.5-4.2,3.7v0.1c0,0.7,0.1,1.3,0.3,1.8l-1,1.5l-6.3,9.8h-15.9
		l-2.3-2.6l-3.9-4.3c0.1-0.1,0.1-0.3,0.2-0.4c0.7-2.1-0.4-4.3-2.5-5l-0.1,0c-2.1-0.7-4.3,0.4-5,2.5c-0.7,2.1,0.4,4.3,2.5,5l0.1,0
		c0.6,0.2,1.3,0.2,1.9,0.2l1.2,1.4l3,3.3h-2.1c-2.5,0-4.8,0.9-6.6,2.3c-1,0.8-1.9,1.7-2.5,2.8c-1.1,1.7-1.7,3.7-1.7,5.8v3.4h-8
		l-4.3,0l-5.1,0c0-0.2-0.1-0.3-0.2-0.4c-1.1-1.9-3.5-2.6-5.4-1.5l0,0c-1.9,1.1-2.5,3.5-1.5,5.4c1.1,1.9,3.5,2.6,5.4,1.5l0.1,0
		c0.6-0.3,1-0.8,1.4-1.3l1.8,0l3.6,0l12.2,0v2.5c0,5.6,4.3,10.3,9.8,10.8l0,0.1l-3,8.8c-0.2,0-0.3,0-0.5,0.1
		c-2.1,0.4-3.6,2.4-3.2,4.6l0,0.1c0.4,2.1,2.5,3.6,4.6,3.2c2.2-0.4,3.6-2.5,3.2-4.6l0-0.1c-0.1-0.6-0.4-1.2-0.8-1.7l0.6-1.7l3-8.6
		h16.7l15,10.2c0,0.2-0.1,0.3-0.1,0.5c-0.2,2.2,1.4,4.1,3.6,4.3h0.1c2.2,0.2,4.1-1.4,4.3-3.6c0.2-2.2-1.4-4.1-3.6-4.3h-0.1
		c-0.7-0.1-1.3,0-1.8,0.3l-1.5-1l-9.3-6.3h4.7c0.8,0,1.5-0.1,2.2-0.2c1.5-0.3,3-1,4.2-1.9c2.7-2,4.4-5.2,4.4-8.7v-2.1h1.9l4,0
		c0.1,0.1,0.1,0.3,0.2,0.4c0,0,0,0.1,0.1,0.1c0,0,0,0,0,0c0.4,0.6,0.9,1.1,1.5,1.4c1.2,0.7,2.6,0.7,3.9,0l0,0
		c0.4-0.2,0.8-0.6,1.1-0.9C335.8,135.8,336,134.1,335.2,132.6z M312.6,104.6c0-0.2,0-0.3,0.1-0.4c0.2-0.7,0.9-1.1,1.7-1.1
		c0.9,0.1,1.6,0.8,1.5,1.7v0c-0.1,0.7-0.5,1.2-1.1,1.4c-0.2,0.1-0.4,0.1-0.6,0.1C313.3,106.3,312.6,105.5,312.6,104.6L312.6,104.6z
		 M279.2,109.5c-0.3,0.8-1.2,1.3-2.1,1h0c-0.1-0.1-0.3-0.1-0.4-0.2c-0.6-0.4-0.9-1.2-0.6-1.9c0.3-0.8,1.2-1.3,2-1h0
		c0.7,0.2,1.1,0.8,1.1,1.5C279.3,109.1,279.2,109.3,279.2,109.5z M249.3,134.9L249.3,134.9c-0.2,0.1-0.3,0.1-0.4,0.2
		c-0.7,0.2-1.4-0.1-1.8-0.8c-0.4-0.8-0.2-1.8,0.6-2.2l0,0c0.6-0.3,1.3-0.2,1.8,0.2c0.2,0.1,0.3,0.3,0.4,0.5
		C250.4,133.5,250.1,134.4,249.3,134.9z M276.7,163.4c-0.9,0.2-1.7-0.4-1.9-1.3l0,0c-0.1-0.7,0.2-1.3,0.8-1.7
		c0.2-0.1,0.4-0.2,0.6-0.2c0.9-0.2,1.7,0.4,1.9,1.3l0,0c0,0.2,0,0.3,0,0.4C278,162.7,277.5,163.3,276.7,163.4z M318.9,158.5
		L318.9,158.5c0.2,0,0.3,0,0.4,0.1c0.7,0.3,1.1,0.9,1,1.7c-0.1,0.9-0.9,1.5-1.8,1.5h0c-0.7-0.1-1.2-0.5-1.4-1.2
		c-0.1-0.2-0.1-0.4-0.1-0.6C317.2,159.1,318,158.4,318.9,158.5z M317.1,138.2c0,2.8-2,5.2-4.7,5.7c-0.4,0.1-0.8,0.1-1.2,0.1h-12
		h-6.6h-7.7H281h-0.6c-3.2,0-5.9-2.6-5.9-5.9v-9.7c0-0.6,0.1-1.3,0.3-1.8c0.4-1.2,1.2-2.3,2.3-3c0.9-0.6,2.1-1,3.3-1h19.7h4.4h6.7
		c3.2,0,5.9,2.6,5.9,5.9v3.8v3.7V138.2z M332.5,136L332.5,136c-0.6,0.3-1.3,0.3-1.8-0.2c-0.1-0.1-0.3-0.3-0.4-0.5
		c-0.4-0.8-0.1-1.8,0.6-2.2l0,0c0.1-0.1,0.3-0.1,0.4-0.2c0.7-0.2,1.4,0.1,1.8,0.8C333.6,134.5,333.3,135.5,332.5,136z"/>
</g>
</svg>
